<svg id="live" xmlns="http://www.w3.org/2000/svg" viewBox="0 0 48 48"><title>materialpage</title><path d="M24.06,10.71l12.1,12.11a2.37,2.37,0,0,1,0,3.36L24.06,38.29a2.38,2.38,0,0,1-3.92-2.52h0a2.4,2.4,0,0,1,.55-.85l8.73-8.74a2.37,2.37,0,0,0,0-3.36l-8.73-8.74a2.4,2.4,0,0,1-.55-.85h0A2.38,2.38,0,0,1,24.06,10.71Z"/><path d="M15.85,14.61l8.69,8.68a1.71,1.71,0,0,1,0,2.42l-8.69,8.68A1.71,1.71,0,0,1,13,32.59h0a1.77,1.77,0,0,1,.39-.61l6.27-6.27a1.71,1.71,0,0,0,0-2.42L13.43,17a1.77,1.77,0,0,1-.39-.61h0A1.71,1.71,0,0,1,15.85,14.61Z"/></svg>