<svg xmlns="http://www.w3.org/2000/svg" width= "150px" viewBox="0 0 48 48"><defs><style>.cls-1{fill:#666;}.cls-2{fill:#4b4b4b;}</style></defs><title>materialpage</title><g id="rails"><polygon class="cls-1" points="32.09 14.64 31.77 12.73 34.33 14.64 32.09 14.64"/><path class="cls-2" d="M35,17.2l-2.88-2.56h2.24A3,3,0,0,1,35,17.2Z"/><path class="cls-2" d="M33.37,19.11l-1.28-4.47L35,17.2a7.55,7.55,0,0,1-.64.95A5.77,5.77,0,0,1,33.37,19.11Z"/><polygon class="cls-1" points="29.22 16.56 32.09 14.64 32.38 15.64 33.37 19.11 29.22 16.56"/><path class="cls-2" d="M33.37,19.11a6.65,6.65,0,0,1-1,.64,7,7,0,0,1-1.59.64,9,9,0,0,1-1.6.64,8.8,8.8,0,0,1-1.91.32l1.91-4.79Z"/><polygon class="cls-1" points="27.3 21.35 24.11 17.2 29.22 16.56 27.3 21.35"/><path class="cls-2" d="M27.31,21.35a12.17,12.17,0,0,1-3.92.09l-.55-.09a11.93,11.93,0,0,1-2.88-1l4.15-3.19Z"/><path class="cls-2" d="M20,20.39l1.28-6.07L19,17.2a2.17,2.17,0,0,0-.32,1.27A2.58,2.58,0,0,0,20,20.39Z"/><polygon class="cls-1" points="19.96 20.39 20.96 15.67 24.11 17.2 19.96 20.39"/><path class="cls-2" d="M30.82,20.39,27.94,25.5l-.63-4.15A8.8,8.8,0,0,0,29.22,21,9,9,0,0,0,30.82,20.39Z"/><path class="cls-1" d="M27.94,25.5l-4.55-4.06a12.17,12.17,0,0,0,3.92-.09Z"/><path class="cls-2" d="M27.94,25.5l-8-5.11a11.93,11.93,0,0,0,2.88,1l.55.09Z"/><ellipse class="cls-2" cx="26.53" cy="14.39" rx="5.05" ry="2.16" transform="translate(-2.02 4.59) rotate(-9.53)"/><path class="cls-1" d="M27.94,25.5l2.88-5.11a7.4,7.4,0,0,0,1.59-.64,6.49,6.49,0,0,0,1.15-.8L27.94,25.5"/><path class="cls-2" d="M26,27.73c-8.94-8-17.24-2.87-19.47,7.66h7c-1.28-8.62,5.1-12.15,12.13-7.34Z"/><polygon class="cls-2" points="6.24 30.6 5.92 31.56 6.88 32.2 7.52 30.92 6.24 30.6"/><polygon class="cls-2" points="9.51 26.46 8.8 27.02 9.4 27.73 10.1 26.86 9.51 26.46"/><polygon class="cls-2" points="20.28 23.26 21.24 23.58 21.24 24.22 20.28 23.9 20.28 23.26"/><polygon class="cls-2" points="12.3 24.22 13.26 23.58 13.58 24.22 12.62 24.86 12.3 24.22"/><rect class="cls-2" x="16.13" y="22.94" width="0.96" height="0.64"/><polygon class="cls-2" points="14.98 34.44 14.96 33.51 13.93 33.26 13.78 34.57 14.98 34.44"/><polygon class="cls-2" points="14.3 30.42 14.02 31.2 14.84 31.46 14.96 30.43 14.3 30.42"/><polygon class="cls-2" points="20.27 26.32 21.2 26.32 21.38 26.88 20.45 26.88 20.27 26.32"/><polygon class="cls-2" points="15.29 28.44 16.03 27.68 16.44 28.19 15.7 28.95 15.29 28.44"/><rect class="cls-2" x="17.53" y="26.5" width="0.88" height="0.59"/><path class="cls-2" d="M20.92,33.16c1.92-.32,2.13-3,.32-4.15H17.41v6.38H19v-1.6l1.59,1.6h2.56ZM19,31.88V30.6H20.6c.73.57,0,1.28,0,1.28Z"/><path class="cls-2" d="M23.48,30.28v5.11h1.59V34.11h1.6v1.28h1.91V30.28C28.26,28.37,23.48,28.37,23.48,30.28Zm3.19,2.24h-1.6V30.65a1.11,1.11,0,0,1,1.6,0Z"/><rect class="cls-2" x="29.22" y="29.01" width="1.92" height="6.38"/><rect class="cls-2" x="31.77" y="29.01" width="1.92" height="6.38"/><rect class="cls-2" x="33.05" y="33.79" width="2.87" height="1.6"/><path class="cls-2" d="M37.84,30.6v.64H39.4a1.55,1.55,0,0,1,.81.23A1.63,1.63,0,0,1,41,32.62V34a1.83,1.83,0,0,1-1.28,1.38H36.56v-1.6h3.19v-.95H37.84a1.77,1.77,0,0,1-1.28-1.28V30.28A1.77,1.77,0,0,1,37.84,29H41V30.6Z"/></g></svg>