<svg xmlns="http://www.w3.org/2000/svg" viewBox="0 0 48 48"><defs><style>.cls-1{fill:#666;}.cls-2{fill:#4b4b4b;}</style></defs><title>materialpage</title><g id="ruby"><polygon class="cls-1" points="32.84 17.78 32.27 14.37 36.82 17.78 32.84 17.78"/><path class="cls-2" d="M38,22.33l-5.12-4.55h4A5.43,5.43,0,0,1,38,20.06,5.26,5.26,0,0,1,38,22.33Z"/><path class="cls-2" d="M35.11,25.75l-2.27-8L38,22.33A11.77,11.77,0,0,1,36.82,24,11.93,11.93,0,0,1,35.11,25.75Z"/><polygon class="cls-1" points="27.72 21.2 32.84 17.78 33.34 19.55 35.11 25.75 27.72 21.2"/><path class="cls-2" d="M35.11,25.75A12.66,12.66,0,0,1,30.56,28a15.46,15.46,0,0,1-2.84,1.14,15.84,15.84,0,0,1-3.42.57l3.42-8.53Z"/><polygon class="cls-1" points="24.3 29.73 18.62 22.33 27.72 21.2 24.3 29.73"/><path class="cls-2" d="M24.3,29.73a21.1,21.1,0,0,1-7,.16c-.32,0-.65-.09-1-.16A20.77,20.77,0,0,1,11.22,28l7.4-5.69Z"/><path class="cls-2" d="M11.22,28,13.5,17.21l-4,5.12A4,4,0,0,0,9,24.61,4.57,4.57,0,0,0,11.22,28Z"/><polygon class="cls-1" points="11.22 28.02 12.99 19.61 18.62 22.33 11.22 28.02"/><path class="cls-2" d="M30.56,28l-5.12,9.1L24.3,29.73a15.84,15.84,0,0,0,3.42-.57A15.46,15.46,0,0,0,30.56,28Z"/><path class="cls-1" d="M25.44,37.12l-8.11-7.23a21.1,21.1,0,0,0,7-.16Z"/><path class="cls-2" d="M25.44,37.12,11.22,28a20.77,20.77,0,0,0,5.12,1.71c.34.07.67.12,1,.16Z"/><ellipse class="cls-2" cx="22.93" cy="17.33" rx="9" ry="3.85" transform="translate(-2.55 4.04) rotate(-9.53)"/><path class="cls-1" d="M25.44,37.12,30.56,28a12,12,0,0,0,2.84-1.14,11.49,11.49,0,0,0,2.05-1.42l-10,11.66"/></g></svg>