<svg xmlns="http://www.w3.org/2000/svg" width="88px" viewBox="0 0 48 48">
  <defs>
    <style>.cls-1{fill:#4b4b4b;}.cls-2{fill:#666;}</style>
  </defs>
  <title>materialpage</title>
  <g id="css">
    <path class="cls-1" d="M36.16,14.06H11.93v.42a4.16,4.16,0,0,1,.12.93c.14,1.52.27,3,.41,4.55l.3,3.51c.12,1.33.25,2.65.36,4,.11,1.17.21,2.33.31,3.49l.36,4c.1,1.15.2,2.31.31,3.46a2.58,2.58,0,0,0,0,.29c0,.39,0,.39.43.5l9.34,2.6c.06,0,.13,0,.17.07h.17c.51-.19,1-.31,1.56-.46,2.72-.75,5.43-1.51,8.15-2.25.19,0,.25-.14.27-.34.1-1.32.23-2.65.35-4l.3-3.45c.13-1.35.25-2.7.37-4.05.1-1.16.2-2.32.31-3.48.11-1.33.24-2.66.35-4,.11-1.16.21-2.32.31-3.49l.18-2C36.42,14.06,36.42,14.06,36.16,14.06ZM22.24,36l-4.19-1.16c-.11,0-.18-.07-.19-.2l-.39-4.48c0-.16,0-.19.17-.19h2.71c.14,0,.18.06.2.19.05.69.12,1.38.18,2.07,0,.15.05.2.19.24,1,.26,2,.54,3,.81l.18.05h0l.05,0,3.17-.86a.28.28,0,0,0,.24-.29l.3-3.5,0-.23-.39,0h-10c-.07,0-.15,0-.21,0-.09-1-.18-1.92-.26-2.88a.48.48,0,0,1,0-.12c.07-.07.16,0,.24,0H28.2l.27-3c0-.15,0-.14-.15-.14H24.2l0,0h0v0l0,0,0,0H17c-.16,0-.22,0-.23-.2-.08-.93-.17-1.87-.25-2.8l0,0c.07-.05.16,0,.24,0H31.6c.08,0,.16,0,.22,0,0,.43-.06.85-.09,1.27-.09,1-.18,2.05-.28,3.07-.1,1.18-.21,2.35-.31,3.53l-.27,3-.36,4c0,.19,0,.39-.05.58a.17.17,0,0,1-.14.19l-6,1.66h-.06l-.09,0h-.08C23.47,36.33,22.85,36.18,22.24,36Z"/><path class="cls-1" d="M25.86,11.83c0,.12,0,.16-.14.16H22.3c-.12,0-.16,0-.15-.15V10.71c0-.12,0-.15.15-.15h1.83c.11,0,.19,0,.19-.15s-.1-.12-.18-.12h-1.8c-.15,0-.2,0-.2-.19,0-1,0-1.91,0-2.86h3.71c0,.4,0,.79,0,1.19,0,.13,0,.16-.16.16H23.87c-.11,0-.18,0-.18.15s.09.12.18.12H25.7c.13,0,.17,0,.17.16C25.86,10,25.86,10.9,25.86,11.83Z"/><path class="cls-1" d="M30.32,9.06v2.76c0,.14,0,.17-.17.17H26.77c-.12,0-.17,0-.17-.16,0-.37,0-.74,0-1.1,0-.13,0-.17.17-.17h1.81c.1,0,.19,0,.19-.14s-.11-.13-.2-.13H26.76c-.11,0-.16,0-.16-.14,0-1,0-1.93,0-2.9h3.72c0,.4,0,.79,0,1.19,0,.13,0,.16-.16.16H28.32c-.11,0-.17,0-.17.15s.09.12.18.12h1.81C30.29,8.88,30.33,8.92,30.32,9.06Z"/><path class="cls-1" d="M21.41,10.53c0,.42,0,.84,0,1.25,0,.11,0,.15-.13.15H17.83c-.17,0-.14-.09-.14-.19V7.26H21.4c0,.46,0,.93,0,1.4,0,.13-.05.15-.17.15H19.43c-.14,0-.2,0-.19.18,0,.4,0,.8,0,1.21,0,.14,0,.17.18.17h1.81C21.36,10.36,21.41,10.39,21.41,10.53Z"/><path class="cls-2" d="M34.17,16.33c-.06.53-.11,1.07-.16,1.6s-.06.78-.09,1.16c-.06.56-.11,1.13-.16,1.69,0,.37-.06.73-.09,1.1-.06.58-.11,1.16-.17,1.75,0,.37,0,.74-.09,1.11l-.15,1.67c0,.35-.06.71-.09,1.06-.06.57-.09,1.14-.16,1.71,0,.37-.06.76-.1,1.13L32.76,32c0,.37-.06.73-.1,1.1,0,.58-.1,1.17-.16,1.75L32.41,36l-.12,1.42c0,.12-.11.13-.2.15l-1.87.53-4.43,1.23c-.49.13-1,.26-1.47.41-.16.05-.17,0-.17-.14v-3l.09,0h.06l6-1.66a.17.17,0,0,0,.14-.19c0-.19,0-.39.05-.58l.36-4,.27-3c.1-1.18.21-2.35.31-3.53.1-1,.19-2.05.28-3.07,0-.42.1-.84.09-1.27-.06-.06-.14,0-.22,0H24.15c0-.94,0-1.89,0-2.83,0-.16,0-.22.21-.22H34C34.13,16.1,34.19,16.16,34.17,16.33ZM27.55,28.45h-3.4v4.87l.05,0,3.17-.86a.28.28,0,0,0,.24-.29l.3-3.5,0-.23Zm.77-6.21H24.2l0,0h-.05l0,0h0v3.12H28.2l.27-3C28.49,22.23,28.42,22.24,28.32,22.24Z"/></g></svg>