<svg xmlns="http://www.w3.org/2000/svg" width="88px" viewBox="0 0 48 48"><defs><style>.cls-1{fill:#4b4b4b;}.cls-2{fill:#666;}</style></defs><title>materialpage</title><g id="html"><path class="cls-1" d="M36.11,13H11.54c-.32,0-.39.06-.36.38,0,.54.09,1.08.14,1.61l.24,2.69c.08.87.15,1.74.23,2.62.1,1,.19,2.07.28,3.11s.19,2.12.29,3.18l.27,3.11.24,2.68L13.11,35c.11,1.21.22,2.41.32,3.61,0,.29.06.34.34.41Q17,40,20.32,40.87c1.15.32,2.29.7,3.47.92h.13c.18,0,.37,0,.55-.1L34,39.06a.43.43,0,0,0,.36-.44c0-.54.09-1.09.14-1.63.08-.87.15-1.75.24-2.62s.15-1.79.24-2.68.15-1.75.23-2.62l.24-2.64c.07-.9.16-1.79.23-2.68.09-1.05.19-2.09.29-3.14.08-.88.15-1.76.23-2.64.09-1.13.21-2.26.29-3.39a6.51,6.51,0,0,1,.06-.88v-.64A.58.58,0,0,0,36.11,13Zm-4.39,6.37c0,.64-.11,1.27-.16,1.91,0,.18-.06.25-.27.25H23.88l0,0h0l0,0h-4c-.14,0-.33-.05-.42,0s0,.27,0,.41c.07.87.15,1.73.22,2.6,0,.15.06.22.23.21.47,0,.94,0,1.4,0H31c.07,0,.15,0,.22,0,0,.63-.1,1.25-.15,1.87-.09,1.07-.19,2.13-.29,3.2s-.22,2.43-.32,3.65c0,.28-.05.56-.07.83,0,.11,0,.17-.15.2L24,36.27h-.09l-.05,0L22,35.78l-4.4-1.22a.26.26,0,0,1-.21-.26c-.13-1.53-.27-3-.41-4.57,0-.17,0-.21.19-.21.93,0,1.86,0,2.78,0,.16,0,.21,0,.22.2.05.7.12,1.39.18,2.09a.3.3,0,0,0,.26.31l3.18.85.13,0h.05c1.05-.29,2.09-.59,3.14-.85a.41.41,0,0,0,.37-.44c.09-1.2.21-2.4.32-3.59a1,1,0,0,0,0-.17H17c-.19,0-.25-.05-.26-.24-.12-1.41-.25-2.81-.37-4.21-.11-1.21-.21-2.42-.32-3.63C16,19.44,16,19,16,18.6c0-.2,0-.27.23-.27H23.6l.28,0h7.65a.43.43,0,0,1,.25,0A5.54,5.54,0,0,1,31.72,19.36Z"/><path class="cls-2" d="M34.22,15.4c-.06.37-.08.74-.11,1.11-.06.61-.12,1.22-.17,1.83l-.09,1.2c-.05.56-.12,1.12-.16,1.68,0,.37-.06.74-.1,1.11-.06.61-.11,1.22-.17,1.83,0,.4-.05.8-.09,1.2,0,.56-.11,1.12-.17,1.68l-.09,1.09c0,.61-.11,1.21-.17,1.81,0,.4,0,.79-.09,1.18-.05.57-.11,1.14-.16,1.7,0,.38-.06.76-.1,1.14,0,.6-.11,1.2-.16,1.81,0,.4-.08.81-.09,1.22a.34.34,0,0,1-.28.36L27,38.75l-2.85.8c-.16,0-.22,0-.22-.17,0-1,0-2,0-3.06l.05,0H24l6.22-1.73c.11,0,.14-.09.15-.2,0-.27,0-.55.07-.83.1-1.22.21-2.44.32-3.65s.2-2.13.29-3.2c.05-.62.14-1.24.15-1.87-.07-.07-.15,0-.22,0H23.86v0a.34.34,0,0,1,0-.2V21.74a.63.63,0,0,1,0-.19h0l0,0,0,0h0l0,0H31.3c.2,0,.24-.07.26-.25.05-.64.12-1.27.16-1.91a5.54,5.54,0,0,0,.06-1,.43.43,0,0,0-.25,0H23.88V15.39c0-.16,0-.22.21-.22H34C34.22,15.17,34.24,15.22,34.22,15.4ZM27.77,28H23.88v5h.05c1.05-.29,2.09-.59,3.14-.85a.41.41,0,0,0,.37-.44c.09-1.2.21-2.4.32-3.59a1,1,0,0,0,0-.17Z"/><path class="cls-1" d="M27.9,8.53l-1.07,1.66L25.74,8.52h0v2.16c0,.13,0,.18-.16.18H24.29c-.12,0-.16,0-.16-.15V6.17c0-.13,0-.15.16-.15Q25,6,25.64,6a.25.25,0,0,1,.26.15c.3.51.61,1,.94,1.55l.65-1.07c.13-.21.21-.49.4-.59s.48,0,.72,0,.53,0,.8,0c.11,0,.14,0,.14.14v4.53c0,.14,0,.17-.17.16H28.11c-.14,0-.17,0-.17-.18,0-.64,0-1.29,0-1.94v-.2Z"/><path class="cls-1" d="M13.57,8.43c0-.74,0-1.47,0-2.2,0-.18,0-.21.21-.21.42,0,.84,0,1.25,0,.12,0,.16,0,.16.16,0,.41,0,.83,0,1.25,0,.14,0,.2.19.19h1.14c.12,0,.16,0,.16-.15,0-.43,0-.85,0-1.28,0-.12,0-.17.16-.17q.64,0,1.29,0c.11,0,.17,0,.16.15V10.7c0,.11,0,.16-.15.15H16.83c-.14,0-.17,0-.17-.16,0-.42,0-.84,0-1.25,0-.16,0-.22-.2-.21h-1.1c-.16,0-.19,0-.19.19,0,.42,0,.83,0,1.25,0,.14,0,.19-.18.19-.41,0-.83,0-1.25,0-.18,0-.19-.07-.19-.21C13.58,9.91,13.57,9.17,13.57,8.43Z"/><path class="cls-1" d="M21.21,6c.68,0,1.36,0,2,0,.14,0,.17,0,.17.17,0,.42,0,.84,0,1.27,0,.13,0,.17-.16.17-.36,0-.71,0-1.06,0-.19,0-.2.06-.2.22v2.8c0,.17,0,.22-.21.22-.41,0-.82,0-1.23,0-.14,0-.18,0-.18-.17,0-1,0-1.91,0-2.87,0-.15,0-.2-.18-.19H19.13c-.14,0-.17,0-.17-.17,0-.43,0-.85,0-1.28C19,6,19,6,19.14,6,19.83,6,20.52,6,21.21,6Z"/><path class="cls-1" d="M30.35,8.43c0-.74,0-1.48,0-2.22,0-.14,0-.19.18-.19.43,0,.85,0,1.27,0,.14,0,.17,0,.17.17,0,.95,0,1.91,0,2.86,0,.16,0,.21.2.21H34c.15,0,.22,0,.21.2,0,.41,0,.83,0,1.25,0,.11,0,.15-.16.15H30.51c-.16,0-.16-.07-.16-.18C30.36,9.93,30.35,9.18,30.35,8.43Z"/></g></svg>