<?xml version="1.0" encoding="utf-8"?>
<!-- Generator: Adobe Illustrator 23.0.1, SVG Export Plug-In . SVG Version: 6.00 Build 0)  -->
<svg version="1.1" xmlns="http://www.w3.org/2000/svg" xmlns:xlink="http://www.w3.org/1999/xlink" x="0px" y="0px"
	 viewBox="0 0 1087 873.9" style="enable-background:new 0 0 1087 873.9;" xml:space="preserve">
<style type="text/css">
	.st0{fill:#E8E8FF;}
	.st1{fill:#E1E1F7;}
	.st2{fill:#808A9E;}
</style>
<g id="Layer_1">
	<title>Asset 6</title>
	<g id="moon">
		<circle class="st0" cx="350.1" cy="350.1" r="350.1"/>
		<ellipse class="st1" cx="214.4" cy="206.3" rx="74.6" ry="57"/>
		<ellipse class="st1" cx="376.2" cy="511.6" rx="106.6" ry="81.4"/>
		
			<ellipse transform="matrix(0.7071 -0.7071 0.7071 0.7071 36.5684 438.4026)" class="st1" cx="547.5" cy="175.1" rx="63.8" ry="106.6"/>
		
			<ellipse transform="matrix(0.9261 -0.3772 0.3772 0.9261 -143.6606 67.0603)" class="st1" cx="99.4" cy="400.3" rx="81.4" ry="106.6"/>
	</g>
</g>
<g id="Layer_2">
	<path class="st2" d="M420.4,657.9v-12.2c0-10.3-10.4-18.6-23.3-18.6H47.3c-12.9,0-23.3,8.3-23.3,18.6V670
		c0,10.3,10.4,18.6,23.3,18.6h10.2c12.9,0,23.3,8.3,23.3,18.6v5.4c0,10.3,10.4,18.6,23.3,18.6h378.7c12.9,0,23.3-8.3,23.3-18.6
		v-17.6c0-10.3-10.4-18.6-23.3-18.6h-39C430.9,676.5,420.4,668.1,420.4,657.9z"/>
	<path class="st2" d="M410.3,82.9V70.6c0-10.3-10.4-18.6-23.3-18.6H37.2c-12.9,0-23.3,8.3-23.3,18.6V95c0,10.3,10.4,18.6,23.3,18.6
		h10.2c12.9,0,23.3,8.3,23.3,18.6v5.4c0,10.3,10.4,18.6,23.3,18.6h378.7c12.9,0,23.3-8.3,23.3-18.6v-17.6
		c0-10.3-10.4-18.6-23.3-18.6h-39C420.8,101.5,410.3,93.1,410.3,82.9z"/>
	<path class="st2" d="M856.8,319.9V308c0-10-12.3-18-27.5-18h-413c-15.2,0-27.5,8.1-27.5,18v23.6c0,10,12.3,18,27.5,18h12
		c15.2,0,27.5,8.1,27.5,18v5.3c0,10,12.3,18,27.5,18h447c15.2,0,27.5-8.1,27.5-18v-17.1c0-10-12.3-18-27.5-18h-46
		C869.1,337.9,856.8,329.8,856.8,319.9z"/>
</g>
</svg>
